<?xml version="1.0" encoding="UTF-8"?>
<svg version="1.1" xmlns="http://www.w3.org/2000/svg" width="1024" height="1024">
<path d="M0 0 C0.547771 0.41572266 1.09554199 0.83144531 1.65991211 1.25976562 C2.37928955 1.80310547 3.09866699 2.34644531 3.83984375 2.90625 C4.55261475 3.44572266 5.26538574 3.98519531 5.99975586 4.54101562 C8.04370752 6.08317342 8.04370752 6.08317342 10.5625 7.5 C18.99594568 12.68981273 26.09810847 20.58322035 33.26269531 27.35791016 C34.69941646 28.71589027 36.14192144 30.0677483 37.5859375 31.41796875 C47.07548132 40.54780062 54.75033708 51.23148605 61.82788086 62.28955078 C63.87769463 65.697383 63.87769463 65.697383 67 68 C67.14050781 68.70769531 67.28101563 69.41539062 67.42578125 70.14453125 C68.13762717 73.68439088 69.57700993 76.45585437 71.1875 79.6875 C77.86138679 93.59200714 81.86527093 107.75421102 84 123 C84.19722656 124.27810547 84.19722656 124.27810547 84.3984375 125.58203125 C90.40063308 171.89627011 71.61440884 216.96776414 47 255 C46.01406496 256.53499059 45.02837809 258.07014063 44.04296875 259.60546875 C40.93356086 264.4353513 37.80244529 269.25092796 34.65283203 274.0546875 C33.36913006 276.01330622 32.09059565 277.97522026 30.8125 279.9375 C30.23193848 280.81619751 30.23193848 280.81619751 29.63964844 281.71264648 C27.61384507 284.61517056 27.61384507 284.61517056 27 288 C25.67666446 289.34325672 24.34170754 290.6750938 23 292 C21.97312263 293.46775006 20.99757817 294.97212691 20.0625 296.5 C16.71443609 301.87979499 13.27808188 307.19514282 9.8125 312.5 C3.44272024 322.27133515 -2.80046849 332.11997215 -9 342 C-5.24633809 339.10887806 -1.85874559 335.97928674 1.45703125 332.60546875 C1.9636882 332.09502518 2.47034515 331.5845816 2.99235535 331.05867004 C5.1378481 328.89701181 7.27736351 326.7294753 9.41723633 324.56225586 C14.77623441 319.14081966 20.12765246 313.79727304 25.93334961 308.84838867 C28.56231655 306.49707045 31.04492613 304.01123903 33.5234375 301.50390625 C34.23964516 300.7794355 34.23964516 300.7794355 34.97032166 300.04032898 C36.94721683 298.03570318 38.92021665 296.02732935 40.88916016 294.01489258 C42.34628443 292.52775618 43.80941757 291.04674995 45.2734375 289.56640625 C46.56386963 288.25071655 46.56386963 288.25071655 47.88037109 286.90844727 C50 285 50 285 52 285 C52 284.34 52 283.68 52 283 C54.18759713 280.59364316 56.50348719 278.43552227 58.94775391 276.29150391 C64.32357349 271.56764787 69.43100485 266.63877662 74.46875 261.55859375 C75.12118683 260.9006633 75.77362366 260.24273285 76.4458313 259.56486511 C79.16148565 256.82141965 81.87331577 254.07425646 84.58105469 251.32299805 C86.58099303 249.29306535 88.58694055 247.26923041 90.59375 245.24609375 C91.20827026 244.61811386 91.82279053 243.99013397 92.45593262 243.34312439 C93.9331113 241.8571617 95.46199864 240.42291735 97 239 C97.66 239 98.32 239 99 239 C99.33 238.01 99.66 237.02 100 236 C101.3203125 234.703125 101.3203125 234.703125 103.125 233.25 C108.38140424 228.82809789 113.11750578 223.90597844 117.89501953 218.97949219 C118.84030518 218.0170459 118.84030518 218.0170459 119.8046875 217.03515625 C120.65522705 216.15935913 120.65522705 216.15935913 121.52294922 215.26586914 C123 214 123 214 125 214 C125.33 213.01 125.66 212.02 126 211 C127.390625 209.6328125 127.390625 209.6328125 129.25 208.125 C133.21381451 204.77429349 136.85944456 201.19193424 140.5 197.5 C144.56932988 193.38305525 148.68430118 189.43057278 153.09765625 185.6796875 C157.48972987 181.80167589 161.56213087 177.55029514 165.609375 173.31640625 C166.70611819 172.17772876 167.84772093 171.08244398 169 170 C169.66 170 170.32 170 171 170 C170.82476807 170.565979 170.64953613 171.13195801 170.46899414 171.71508789 C168.2730127 178.90931559 166.32759173 186.1575983 164.4375 193.4375 C164.13392578 194.58798828 163.83035156 195.73847656 163.51757812 196.92382812 C156.78722244 222.80417189 154.73330118 249.122418 167.515625 273.54296875 C171.34205124 279.87671113 175.41681144 285.44553534 182 289 C180.5800745 292.23048748 178.86380613 294.38242488 176.3671875 296.86328125 C175.64273437 297.58580078 174.91828125 298.30832031 174.171875 299.05273438 C173.41390625 299.79845703 172.6559375 300.54417969 171.875 301.3125 C171.14023437 302.04662109 170.40546875 302.78074219 169.6484375 303.53710938 C165.52669658 307.62619566 161.2989801 311.52040922 156.90185547 315.30981445 C153.21411719 318.58712024 149.82822734 322.17040163 146.40625 325.72070312 C144.97301047 327.18281122 143.49037458 328.59617692 142 330 C141.34 330 140.68 330 140 330 C139.77699219 330.56074219 139.55398438 331.12148438 139.32421875 331.69921875 C137.59453701 334.70447699 135.41845209 336.52306031 132.8125 338.8125 C127.13527629 343.87255795 121.75061093 349.17711476 116.42895508 354.60864258 C113.49184595 357.5866507 110.52431372 360.44702933 107.33984375 363.16015625 C101.34412095 368.33228278 95.87370228 374.05831039 90.3125 379.6875 C88.10322092 381.9235312 85.89053287 384.15610937 83.67578125 386.38671875 C82.93186882 387.14307869 82.93186882 387.14307869 82.17292786 387.91471863 C79.26695516 390.84092889 76.24671388 393.46140859 73 396 C71.31107702 397.6441091 69.64708962 399.31398359 68 401 C66.81776086 402.18494681 65.63406597 403.3684423 64.44921875 404.55078125 C63.83369141 405.16630859 63.21816406 405.78183594 62.58398438 406.41601562 C59.72265625 409.27734375 56.86132812 412.13867188 54 415 C55.31723754 417.93063519 56.72148646 419.94715944 59.0390625 422.1640625 C59.61914062 422.72867187 60.19921875 423.29328125 60.796875 423.875 C61.40015625 424.4525 62.0034375 425.03 62.625 425.625 C63.83001989 426.77917517 65.03078487 427.93781463 66.2265625 429.1015625 C66.75846191 429.61025879 67.29036133 430.11895508 67.83837891 430.64306641 C69 432 69 432 69 434 C69.58023926 434.24250488 70.16047852 434.48500977 70.75830078 434.73486328 C73.41768845 436.23572877 74.88840086 437.91632988 76.8671875 440.2421875 C80.68756833 444.59426276 84.64940926 448.73944943 88.7578125 452.8203125 C89.35495056 453.41414734 89.95208862 454.00798218 90.56732178 454.61981201 C92.41791893 456.45686746 94.27101077 458.29136829 96.125 460.125 C98.58897028 462.56206965 101.04938308 465.00265488 103.5078125 467.4453125 C104.3299675 468.25501999 104.3299675 468.25501999 105.16873169 469.08108521 C108.01114709 471.90581873 110.71692834 474.79297142 113.32983398 477.83203125 C117.39890365 482.5337882 121.78914939 486.87844266 126.21484375 491.2421875 C127.96952944 492.98424568 129.724083 494.72643696 131.47851562 496.46875 C134.22445301 499.18972207 136.97197381 501.9090597 139.72192383 504.62597656 C142.39053887 507.2645753 145.05305469 509.90920557 147.71484375 512.5546875 C148.54596176 513.37234589 149.37707977 514.19000427 150.23338318 515.03244019 C150.99159866 515.78727692 151.74981415 516.54211365 152.53100586 517.31982422 C153.20272324 517.98408417 153.87444061 518.64834412 154.56651306 519.33273315 C156 521 156 521 156 523 C156.66 523 157.32 523 158 523 C159.41798401 524.44046021 159.41798401 524.44046021 161.07641602 526.44970703 C165.07787823 531.15238191 169.3809526 535.47331758 173.77734375 539.8046875 C175.44088312 541.45560029 177.10429088 543.1066457 178.76757812 544.7578125 C181.36866192 547.33392628 183.97133041 549.90840162 186.57641602 552.48046875 C189.10603361 554.98007033 191.62954984 557.48570187 194.15234375 559.9921875 C194.9397142 560.76609833 195.72708466 561.54000916 196.53831482 562.33737183 C197.61557579 563.40956467 197.61557579 563.40956467 198.71459961 564.50341797 C199.3507872 565.13214813 199.98697479 565.7608783 200.6424408 566.40866089 C202 568 202 568 202 570 C202.639375 570.268125 203.27875 570.53625 203.9375 570.8125 C206 572 206 572 207 575 C207.99 575.33 208.98 575.66 210 576 C210 576.66 210 577.32 210 578 C210.99 578.33 211.98 578.66 213 579 C214.20017423 580.38967542 215.39983005 581.78209326 216.5234375 583.234375 C218.53723791 585.64241146 220.77278872 587.78702748 223 590 C224.05580706 591.05503264 225.11120605 592.11047376 226.16625977 593.16625977 C226.73357315 593.73357315 227.30088654 594.30088654 227.88539124 594.88539124 C248.96313477 615.96313477 248.96313477 615.96313477 250.55105591 617.55886841 C251.81881284 618.81978977 253.11236494 620.05466756 254.40991211 621.28491211 C256 623 256 623 256 625 C238.75349986 625.30454615 221.50784609 625.53334024 204.25926685 625.67355824 C196.24915662 625.74041413 188.24072294 625.83144609 180.23168945 625.98071289 C173.24563643 626.11085131 166.26079798 626.19428593 159.27356642 626.22315043 C155.57776134 626.24000968 151.88542859 626.27921189 148.1907444 626.37449074 C122.71761178 627.00643107 122.71761178 627.00643107 115.44835949 620.45118999 C112.98898855 617.78375237 111.00206954 615.03065 109 612 C107.88354061 610.67793442 106.75290026 609.36720193 105.58984375 608.0859375 C104.80649658 607.16506348 104.80649658 607.16506348 104.00732422 606.22558594 C101.18044377 603.09133124 98.1889477 600.13440125 95.19140625 597.1640625 C94.57542572 596.5535907 93.95944519 595.9431189 93.32479858 595.31414795 C90.74648223 592.76363677 88.16452605 590.21687746 85.57836914 587.67431641 C83.67424016 585.80020162 81.77622603 583.92006678 79.87890625 582.0390625 C79.28839981 581.46201569 78.69789337 580.88496887 78.0894928 580.29043579 C76.68804268 578.89778729 75.33840722 577.45334043 74 576 C74 575.34 74 574.68 74 574 C73.41734375 573.75507812 72.8346875 573.51015625 72.234375 573.2578125 C69.61406225 571.78274134 68.19431814 570.1692954 66.25 567.875 C61.36228227 562.28903688 56.14484621 557.08417678 50.84863281 551.88623047 C46.96538929 548.05179064 43.31195676 544.10686593 39.75048828 539.97314453 C36.81640733 536.6658583 33.65739738 533.59229641 30.5 530.5 C26.75826473 526.83541391 23.09582662 523.16723439 19.6875 519.1875 C15.23223658 514.0205972 10.35571331 509.28703278 5.5 504.5 C-5.59351067 493.56339896 -5.59351067 493.56339896 -10.44726562 487.38085938 C-12.15184894 485.5569741 -12.15184894 485.5569741 -16 486 C-17.84633257 487.80231787 -17.84633257 487.80231787 -19.4375 490.1875 C-22.08204628 493.78810846 -24.79751691 496.87376651 -28 500 C-34.30230148 506.75952728 -40.18104634 513.82474887 -46 521 C-47.95014046 523.40017288 -49.91549318 525.71212666 -52 528 C-52.66 528 -53.32 528 -54 528 C-54.31710937 528.78117188 -54.31710937 528.78117188 -54.640625 529.578125 C-56.57463857 533.02378135 -59.14243026 535.7962822 -61.75 538.75 C-65.67102402 543.23825655 -69.44518224 547.71897342 -72.81640625 552.64453125 C-74 554 -74 554 -77 555 C-77.33 468.54 -77.66 382.08 -78 293 C-124.08499967 358.28708286 -155.43906085 429.46635764 -141.52832031 510.75634766 C-131.87927954 562.16974956 -100.27324122 605.01196473 -65.27246094 642.38598633 C-62.77666924 645.05370448 -60.352008 647.75671788 -57.984375 650.5390625 C-52.50391831 656.83396865 -46.48203348 662.62299536 -40.5625 668.5 C-39.3415631 669.71591114 -38.12085808 670.93205516 -36.90039062 672.1484375 C-33.93625987 675.10164966 -30.96901042 678.05169398 -28 681 C-28.33 681.66 -28.66 682.32 -29 683 C-29.59353271 682.58314941 -30.18706543 682.16629883 -30.79858398 681.73681641 C-35.32316698 678.56375509 -39.85649247 675.40464696 -44.41015625 672.2734375 C-55.46025581 664.6623748 -66.32926274 656.90425714 -76.89794922 648.63720703 C-79.14204156 646.88936925 -81.3998565 645.1604124 -83.66015625 643.43359375 C-91.18080406 637.6695483 -98.53995655 631.87738095 -105.4453125 625.37890625 C-107.40529377 623.55378608 -109.38750489 621.81900004 -111.42578125 620.0859375 C-117.27765044 614.98576626 -122.70507224 609.44391529 -128.18188477 603.94848633 C-130.05829475 602.06671726 -131.93998969 600.19035262 -133.82226562 598.31445312 C-139.75951388 592.38099015 -145.61157413 586.44429704 -151 580 C-151.73464478 579.1493396 -151.73464478 579.1493396 -152.48413086 578.28149414 C-166.71801289 561.75704841 -179.64929616 543.05432518 -189.375 523.5 C-189.87773437 522.4996875 -190.38046875 521.499375 -190.8984375 520.46875 C-192 518 -192 518 -192 516 C-192.66 515.67 -193.32 515.34 -194 515 C-194.73291016 513.27636719 -194.73291016 513.27636719 -195.4140625 511.046875 C-195.6709082 510.23025391 -195.92775391 509.41363281 -196.19238281 508.57226562 C-196.45889648 507.72341797 -196.72541016 506.87457031 -197 506 C-197.54384317 504.4199239 -198.09333403 502.84178045 -198.6484375 501.265625 C-205.3991405 481.78275512 -209.67056056 462.48165071 -212 442 C-212.13277344 440.906875 -212.26554687 439.81375 -212.40234375 438.6875 C-217.07461654 393.62886921 -205.69537901 348.87942324 -186.20581055 308.54150391 C-184.71063553 305.39010241 -183.32049163 302.19872979 -181.95507812 298.98925781 C-180.51419138 295.98814707 -178.63481229 293.34002768 -176.7421875 290.609375 C-175.07838385 288.11740002 -173.54263818 285.57221024 -172.02880859 282.98706055 C-160.63374618 263.54407598 -147.32234723 245.11737917 -132.61328125 228.05078125 C-129.28133665 224.18394253 -126.08079374 220.21407165 -122.875 216.2421875 C-121 214 -121 214 -119.3125 212.3828125 C-117.73765002 210.91917764 -117.73765002 210.91917764 -117 208 C-115.6171875 206.67578125 -115.6171875 206.67578125 -113.875 205.3125 C-110.46600082 202.5005964 -107.67272153 199.43143518 -104.81640625 196.0703125 C-102.40585219 193.32279927 -99.81589641 190.78776205 -97.1875 188.25 C-95.39150743 186.40269336 -93.73690189 184.52784067 -92.06982422 182.56762695 C-87.69973437 177.56141694 -82.99794707 172.89997167 -78.27518082 168.23058128 C-76.6562537 166.62933656 -75.04114422 165.02432579 -73.42697144 163.41828918 C-68.84221046 158.85772176 -64.25179907 154.30287459 -59.65673828 149.75268555 C-56.83024219 146.95326755 -54.00888117 144.14875399 -51.19042587 141.34124184 C-50.12803044 140.28497133 -49.06375372 139.23058891 -47.99740982 138.17830467 C-41.19585205 131.46563774 -34.94828269 124.49184446 -29 117 C-27.68997141 115.43542734 -26.377825 113.87262263 -25.0625 112.3125 C-15.77262462 100.57986855 -9.09348763 88.03011441 -4 74 C-3.60039062 72.93652344 -3.20078125 71.87304688 -2.7890625 70.77734375 C5.09479725 47.80745162 4.20730779 23.54088881 0 0 Z " fill="#F96326" transform="translate(485,144)"/>
<path d="M0 0 C1.65 0.66 3.3 1.32 5 2 C5 2.66 5 3.32 5 4 C5.99 4.33 6.98 4.66 8 5 C9.20017423 6.38967542 10.39983005 7.78209326 11.5234375 9.234375 C14.99572269 13.38641973 19.06272982 17.05497147 22.91104126 20.85974121 C25.47854649 23.40035908 28.04064034 25.94640601 30.60253906 28.49267578 C31.95265136 29.83268342 33.30454649 31.17089712 34.65820312 32.50732422 C36.62324796 34.44806806 38.58172421 36.39523775 40.5390625 38.34375 C41.14223297 38.9365979 41.74540344 39.5294458 42.36685181 40.14025879 C42.93108856 40.70434448 43.49532532 41.26843018 44.07666016 41.84960938 C44.57009918 42.33860718 45.06353821 42.82760498 45.57192993 43.3314209 C47 45 47 45 50 50 C6.44 50 -37.12 50 -82 50 C-82 49.67 -82 49.34 -82 49 C-39.76 49 2.48 49 46 49 C46 48.34 46 47.68 46 47 C44.515 46.505 44.515 46.505 43 46 C41.47666931 44.45419312 41.47666931 44.45419312 39.84741211 42.47412109 C35.94055664 37.87250181 31.7402646 33.6474911 27.44140625 29.4140625 C25.82344006 27.80872239 24.2056052 26.20324992 22.58789062 24.59765625 C20.05923349 22.09397168 17.52899097 19.59192772 14.99633789 17.09228516 C12.53621902 14.66218215 10.08220267 12.22605003 7.62890625 9.7890625 C6.48066124 8.66100693 6.48066124 8.66100693 5.30921936 7.51016235 C4.26198952 6.46800064 4.26198952 6.46800064 3.19360352 5.40478516 C2.57518082 4.79381989 1.95675812 4.18285461 1.31959534 3.55337524 C0 2 0 2 0 0 Z " fill="#FB5113" transform="translate(690,718)"/>
<path d="M0 0 C1 3 1 3 0.171875 5.13671875 C-5.57577896 15.44775731 -12.15355171 26.12563272 -20 35 C-20.66 35 -21.32 35 -22 35 C-22.26643311 35.58861816 -22.53286621 36.17723633 -22.80737305 36.78369141 C-24.02481209 39.04610934 -25.31171478 40.60911572 -27.08203125 42.4609375 C-27.68466797 43.09773438 -28.28730469 43.73453125 -28.90820312 44.390625 C-29.53662109 45.04546875 -30.16503906 45.7003125 -30.8125 46.375 C-35.03606627 50.80599325 -39.11336187 55.27022873 -43 60 C-45.59285424 62.71632349 -47.87354781 64.91569854 -51 67 C-50.35330586 65.65686601 -49.68096422 64.32608822 -49 63 C-48.62746094 62.27425781 -48.25492187 61.54851562 -47.87109375 60.80078125 C-45.32559582 56.99050564 -42.16566365 54.0434124 -38.875 50.875 C-32.76344372 44.8789354 -27.26964742 38.75434967 -22 32 C-21.3503125 31.22914063 -20.700625 30.45828125 -20.03125 29.6640625 C-14.31580204 22.83727743 -9.76015816 15.41696271 -5.13867188 7.83398438 C-3.48962383 5.17797045 -1.75257593 2.5886672 0 0 Z " fill="#FB5E1B" transform="translate(478,229)"/>
<path d="M0 0 C0.66 0.33 1.32 0.66 2 1 C-2.54344097 6.1580127 -7.14391612 11.1958018 -12.0625 16 C-16.01599941 19.90484096 -19.47147924 23.986316 -22.875 28.37109375 C-25.27674186 31.34236631 -27.83392926 34.1446276 -30.4375 36.9375 C-35.55157463 42.42755712 -40.32125069 48.13134654 -45 54 C-45.495 52.515 -45.495 52.515 -46 51 C-44.40492196 48.79166279 -42.81066097 46.83108376 -41 44.8125 C-40.24420654 43.94455811 -40.24420654 43.94455811 -39.47314453 43.05908203 C-37.24994828 40.51189169 -34.99463144 37.99399056 -32.7421875 35.47265625 C-32.12601562 34.78042969 -31.50984375 34.08820313 -30.875 33.375 C-30.33617187 32.78460938 -29.79734375 32.19421875 -29.2421875 31.5859375 C-27.78118541 29.90359894 -27.78118541 29.90359894 -27 27 C-25.6171875 25.67578125 -25.6171875 25.67578125 -23.875 24.3125 C-20.46980569 21.50373484 -17.67931786 18.4375747 -14.82421875 15.08203125 C-11.72637451 11.54637605 -8.35372358 8.29057816 -5 5 C-3.99879154 4.00120992 -2.99858857 3.00140944 -2 2 C-1.34 1.34 -0.68 0.68 0 0 Z " fill="#FA5E1B" transform="translate(395,325)"/>
<path d="M0 0 C0.33 0 0.66 0 1 0 C1.2012918 6.5026003 0.22515917 12.6023981 -0.84570312 19.00195312 C-2.93147638 32.03549237 -3.20762745 45.20560734 -3.5625 58.375 C-3.6058463 59.90104946 -3.64946469 61.42709122 -3.69335938 62.953125 C-3.79869587 66.63533358 -3.90039862 70.31763128 -4 74 C-4.33 74 -4.66 74 -5 74 C-7.90738221 50.19559904 -7.034804 24.31158572 -1 1 C-0.67 0.67 -0.34 0.34 0 0 Z " fill="#FC5A18" transform="translate(343,562)"/>
<path d="M0 0 C4.5050235 0.31430397 6.44749498 1.22901272 9.52075195 4.46411133 C11.18374865 6.19078441 12.91617779 7.82083857 14.671875 9.453125 C15.3316333 10.06744385 15.9913916 10.6817627 16.67114258 11.31469727 C17.35716553 11.95334717 18.04318848 12.59199707 18.75 13.25 C20.87942747 15.2457824 23.00653329 17.24399735 25.13232422 19.24365234 C26.63938945 20.66088466 28.14932412 22.0750653 29.66015625 23.48828125 C34.15601176 27.82094781 38.19176373 32.47135464 42.125 37.3125 C42.87293823 38.21174194 42.87293823 38.21174194 43.63598633 39.12915039 C45.0078125 40.86328125 45.0078125 40.86328125 47 44 C46.62451172 46.19604492 46.62451172 46.19604492 46 48 C45.48953125 47.28457031 44.9790625 46.56914062 44.453125 45.83203125 C38.50069853 37.67382972 31.98631025 30.28370551 25 23 C24.25363281 22.21238281 23.50726562 21.42476562 22.73828125 20.61328125 C18.92287787 16.67794377 14.98666144 13.33697076 10.46875 10.2265625 C9.9840625 9.82179687 9.499375 9.41703125 9 9 C9 8.34 9 7.68 9 7 C8.443125 6.773125 7.88625 6.54625 7.3125 6.3125 C4.36753316 4.64103234 2.31843456 2.44723648 0 0 Z " fill="#FA5D1B" transform="translate(493,152)"/>
<path d="M0 0 C0.66 0 1.32 0 2 0 C2 0.99 2 1.98 2 3 C2.59329102 3.26876953 3.18658203 3.53753906 3.79785156 3.81445312 C6.00540033 5.00290732 7.46542882 6.20742389 9.234375 7.96875 C10.09482422 8.82533203 10.09482422 8.82533203 10.97265625 9.69921875 C11.55917969 10.29347656 12.14570312 10.88773438 12.75 11.5 C13.35199219 12.09425781 13.95398438 12.68851563 14.57421875 13.30078125 C15.14269531 13.87183594 15.71117187 14.44289063 16.296875 15.03125 C16.81604492 15.55267578 17.33521484 16.07410156 17.87011719 16.61132812 C19 18 19 18 19 20 C19.57363281 20.23589844 20.14726563 20.47179687 20.73828125 20.71484375 C23.50740972 22.28832089 25.11309973 24.14803411 27.1875 26.5625 C31.59334216 31.59042951 36.22368908 36.32531271 41 41 C40.67 41.99 40.34 42.98 40 44 C36.82530062 40.88307091 33.66164608 37.75516454 30.5 34.625 C29.59378906 33.73554687 28.68757812 32.84609375 27.75390625 31.9296875 C26.46806641 30.65351562 26.46806641 30.65351562 25.15625 29.3515625 C24.36025391 28.56604004 23.56425781 27.78051758 22.74414062 26.97119141 C21 25 21 25 21 23 C20.34 23 19.68 23 19 23 C17.44921875 21.390625 17.44921875 21.390625 15.6875 19.25 C13.00048163 16.07898453 10.26491816 13.57756697 7 11 C6.08314672 9.95558453 5.18781309 8.89196774 4.3125 7.8125 C2.30609749 4.98352767 2.30609749 4.98352767 0 4 C0 2.68 0 1.36 0 0 Z " fill="#FB5E1C" transform="translate(535,558)"/>
<path d="M0 0 C0.99 0.33 1.98 0.66 3 1 C4.12425101 3.26377717 5.07752755 5.46725472 6 7.8125 C11.88301096 21.94497196 19.29446707 35.34042271 28.515625 47.56640625 C29.00546875 48.36949219 29.4953125 49.17257812 30 50 C29.67 50.99 29.34 51.98 29 53 C17.88254798 38.96043823 2.26932574 18.1546059 0 0 Z " fill="#FC5B19" transform="translate(352,691)"/>
<path d="M0 0 C13.42857143 11.14285714 13.42857143 11.14285714 18 18 C18.99 18.33 19.98 18.66 21 19 C21 19.99 21 20.98 21 22 C21.66 22 22.32 22 23 22 C24.41015625 23.43359375 24.41015625 23.43359375 26.0625 25.4375 C30.12068366 30.22341701 34.52000931 34.6114377 39 39 C38.34 39.66 37.68 40.32 37 41 C33.80823908 37.83760418 30.6223919 34.66931241 27.4375 31.5 C26.54224609 30.613125 25.64699219 29.72625 24.72460938 28.8125 C20.15156713 24.25620882 15.73440689 19.64899121 11.53491211 14.74658203 C8.5497674 11.34977508 5.21906485 8.31079629 1.94140625 5.19921875 C0 3 0 3 0 0 Z " fill="#FA5D1C" transform="translate(491,646)"/>
<path d="M0 0 C0.66 0 1.32 0 2 0 C3.60358391 2.38870344 5.09549809 4.77905513 6.5625 7.25 C12.7471986 17.40495586 19.80289787 26.67017923 27.37109375 35.84375 C28.87499082 37.83452023 29.97468664 39.73297549 31 42 C30.01 42 29.02 42 28 42 C26.21112201 40.06383875 24.64163656 38.16108197 23.0625 36.0625 C22.5866748 35.44294434 22.11084961 34.82338867 21.62060547 34.18505859 C14.8217117 25.25196307 8.26372866 16.09543095 2.1484375 6.6796875 C1.73513184 6.04530762 1.32182617 5.41092773 0.89599609 4.75732422 C0 3 0 3 0 0 Z " fill="#FA5D1B" transform="translate(305,681)"/>
<path d="M0 0 C0.66 0.33 1.32 0.66 2 1 C-0.94403636 4.96312587 -4.18440074 7.88522509 -8 11 C-9.68545563 12.65073651 -11.3466885 14.31740199 -13 16 C-16.22417203 19.27580272 -19.45450969 22.54540128 -22.6875 25.8125 C-23.55439453 26.69615234 -24.42128906 27.57980469 -25.31445312 28.49023438 C-26.14267578 29.32490234 -26.97089844 30.15957031 -27.82421875 31.01953125 C-28.95476685 32.16578979 -28.95476685 32.16578979 -30.1081543 33.33520508 C-32 35 -32 35 -34 35 C-34 35.66 -34 36.32 -34 37 C-34.66 36.67 -35.32 36.34 -36 36 C-33.94177574 32.21339511 -31.76970099 29.66698494 -28.5 26.875 C-22.23312725 21.38237752 -16.42146424 15.48503887 -10.57373047 9.55322266 C-9.19698571 8.15850596 -7.81729113 6.76670299 -6.4375 5.375 C-5.63183594 4.55773437 -4.82617188 3.74046875 -3.99609375 2.8984375 C-2 1 -2 1 0 0 Z " fill="#FC5C1A" transform="translate(537,428)"/>
<path d="M0 0 C0.99 0.33 1.98 0.66 3 1 C2.2575 1.721875 1.515 2.44375 0.75 3.1875 C-1.97539437 5.87055629 -1.97539437 5.87055629 -4 8.5625 C-6.11966634 11.14584335 -8.27925017 13.06683565 -11 15 C-11.66 15 -12.32 15 -13 15 C-13 15.66 -13 16.32 -13 17 C-13.66 17 -14.32 17 -15 17 C-15.2475 17.61875 -15.495 18.2375 -15.75 18.875 C-17.20628639 21.35068687 -18.37812506 21.95125002 -21 23 C-19.44942362 19.1940398 -16.880506 16.81417098 -14 14 C-12.81506145 12.81775258 -11.63155051 11.63407315 -10.44921875 10.44921875 C-6.96614583 6.96614583 -3.48307292 3.48307292 0 0 Z " fill="#FC5C1A" transform="translate(495,468)"/>
<path d="M0 0 C0 4.13457059 -2.1789704 6.32110531 -4.5625 9.5 C-8.97816179 15.51935201 -13.08145459 21.6420952 -17 28 C-17.61743164 26.21191406 -17.61743164 26.21191406 -18 24 C-16.57246173 21.42390183 -15.1329602 19.13749685 -13.4375 16.75 C-12.97730469 16.08339355 -12.51710938 15.41678711 -12.04296875 14.72998047 C-10.70976459 12.80928642 -9.35890345 10.90256908 -8 9 C-7.36191406 8.10023438 -6.72382813 7.20046875 -6.06640625 6.2734375 C-2.34871245 1.17435622 -2.34871245 1.17435622 0 0 Z " fill="#FB5D1A" transform="translate(333,399)"/>
<path d="M0 0 C3.07985349 2.50951025 4.60995856 5.08918184 6.25 8.625 C8.65147294 13.6989585 11.78692798 17.71781605 15.42578125 21.96875 C17 24 17 24 17 26 C8.96055776 22.84868188 4.43677607 12.43767783 0.8125 5.09375 C0 3 0 3 0 0 Z " fill="#FB5E1B" transform="translate(645,406)"/>
<path d="M0 0 C5.06623768 4.23816537 9.80038069 8.67408963 14.4375 13.375 C15.07365234 14.01566406 15.70980469 14.65632812 16.36523438 15.31640625 C17.91250332 16.87530879 19.45736492 18.43651416 21 20 C20.01 20.33 19.02 20.66 18 21 C14.98790339 18.07468808 11.9925121 15.13283286 9 12.1875 C8.14148438 11.35412109 7.28296875 10.52074219 6.3984375 9.66210938 C5.58632813 8.85966797 4.77421875 8.05722656 3.9375 7.23046875 C3.18339844 6.49207764 2.42929687 5.75368652 1.65234375 4.99291992 C0 3 0 3 0 0 Z " fill="#FB5917" transform="translate(348,736)"/>
<path d="M0 0 C2.91200555 2.91200555 2.50794657 6.08247067 2.6875 10 C2.72657471 10.76441406 2.76564941 11.52882813 2.8059082 12.31640625 C3.31615605 24.05583118 3.31615605 24.05583118 2 29 C1.34 29.33 0.68 29.66 0 30 C0 20.1 0 10.2 0 0 Z " fill="#FD5B19" transform="translate(567,278)"/>
<path d="M0 0 C4.91935902 4.11619836 9.52647956 8.40410362 14 13 C13.67 13.66 13.34 14.32 13 15 C12.34773438 14.54109375 11.69546875 14.0821875 11.0234375 13.609375 C6.38324709 10.3516602 1.73653655 7.11614247 -3 4 C-2.01 3.34 -1.02 2.68 0 2 C0 1.34 0 0.68 0 0 Z " fill="#E96A2B" transform="translate(443,812)"/>
<path d="M0 0 C0.66 0 1.32 0 2 0 C1.44378126 3.64720572 0.20892932 5.02019037 -2.625 7.3125 C-6.65025129 10.66929801 -10.34752463 14.24479876 -14 18 C-14.99 17.67 -15.98 17.34 -17 17 C-15.90234298 15.90234298 -14.80394073 14.8054267 -13.703125 13.7109375 C-12.37018475 12.37188284 -11.04980812 11.02031941 -9.734375 9.6640625 C-8.53554688 8.43816406 -8.53554688 8.43816406 -7.3125 7.1875 C-6.54550781 6.39730469 -5.77851562 5.60710938 -4.98828125 4.79296875 C-3 3 -3 3 -1 3 C-0.67 2.01 -0.34 1.02 0 0 Z " fill="#FC5D1A" transform="translate(559,535)"/>
<path d="M0 0 C1 3 1 3 -0.0480957 5.26831055 C-0.58523193 6.13238525 -1.12236816 6.99645996 -1.67578125 7.88671875 C-2.25650391 8.82451172 -2.83722656 9.76230469 -3.43554688 10.72851562 C-4.36463867 12.19321289 -4.36463867 12.19321289 -5.3125 13.6875 C-5.92029297 14.67556641 -6.52808594 15.66363281 -7.15429688 16.68164062 C-10.53399995 22.0809678 -10.53399995 22.0809678 -12 24 C-12.66 24 -13.32 24 -14 24 C-10.8626084 15.15826004 -5.46152092 7.53910237 0 0 Z " fill="#FB5D1A" transform="translate(492,456)"/>
<path d="M0 0 C0.33 0.99 0.66 1.98 1 3 C0.34773437 3.58007812 -0.30453125 4.16015625 -0.9765625 4.7578125 C-5.7843078 9.05500077 -10.49976123 13.38133389 -15 18 C-15.99 17.67 -16.98 17.34 -18 17 C-15.37906078 14.35011735 -12.75257802 11.70579857 -10.125 9.0625 C-9.37863281 8.30775391 -8.63226562 7.55300781 -7.86328125 6.77539062 C-7.14785156 6.05673828 -6.43242188 5.33808594 -5.6953125 4.59765625 C-5.03547363 3.93258057 -4.37563477 3.26750488 -3.69580078 2.58227539 C-2 1 -2 1 0 0 Z " fill="#FB5C1B" transform="translate(621,476)"/>
<path d="M0 0 C0.73828125 1.62109375 0.73828125 1.62109375 1 4 C-0.58203125 6.91015625 -0.58203125 6.91015625 -2.8125 10.0625 C-3.54082031 11.10535156 -4.26914062 12.14820313 -5.01953125 13.22265625 C-5.67308594 14.13917969 -6.32664062 15.05570312 -7 16 C-7.66 16.99 -8.32 17.98 -9 19 C-9.66 19 -10.32 19 -11 19 C-9.41467191 14.44435939 -7.00996919 10.68524231 -4.375 6.6875 C-3.95476562 6.04232422 -3.53453125 5.39714844 -3.1015625 4.73242188 C-2.07161759 3.15239276 -1.03634372 1.57583953 0 0 Z " fill="#FC5D1A" transform="translate(508,431)"/>
<path d="M0 0 C0.99 0.33 1.98 0.66 3 1 C1.54782324 2.50596108 0.08807139 4.00462104 -1.375 5.5 C-2.18710937 6.3353125 -2.99921875 7.170625 -3.8359375 8.03125 C-6 10 -6 10 -8 10 C-8 10.66 -8 11.32 -8 12 C-8.66 12 -9.32 12 -10 12 C-10.66 13.32 -11.32 14.64 -12 16 C-12.66 15.67 -13.32 15.34 -14 15 C-10.3134404 9.35495561 -6.18110618 5.28530745 -1 1 C-0.67 0.67 -0.34 0.34 0 0 Z " fill="#FD5B19" transform="translate(594,372)"/>
<path d="M0 0 C0.33 0.99 0.66 1.98 1 3 C-0.73046875 5.6640625 -0.73046875 5.6640625 -3.1875 8.625 C-3.98542969 9.60726562 -4.78335937 10.58953125 -5.60546875 11.6015625 C-7.89258037 13.89240513 -8.84937698 14.69580192 -12 15 C-8.59008792 9.45889287 -4.38579957 4.79031507 0 0 Z " fill="#FB5F1B" transform="translate(447,651)"/>
<path d="M0 0 C0.99 0.33 1.98 0.66 3 1 C-1.62 5.62 -6.24 10.24 -11 15 C-11.66 14.67 -12.32 14.34 -13 14 C-11.58474822 12.41540185 -10.1677358 10.83237609 -8.75 9.25 C-7.96109375 8.36828125 -7.1721875 7.4865625 -6.359375 6.578125 C-4.29407328 4.32133835 -2.18264936 2.14260074 0 0 Z " fill="#FC5917" transform="translate(555,410)"/>
<path d="M0 0 C3.88800558 1.29600186 5.39873667 3.70784087 7.75 6.875 C8.17410156 7.41769531 8.59820312 7.96039062 9.03515625 8.51953125 C10.234375 10.1171875 10.234375 10.1171875 12 13 C11.67 13.99 11.34 14.98 11 16 C9.53386553 14.27744283 8.07738944 12.54666216 6.625 10.8125 C5.40683594 9.36810547 5.40683594 9.36810547 4.1640625 7.89453125 C2.20099811 5.26884404 1.0275346 3.08824959 0 0 Z " fill="#FB5C19" transform="translate(383,745)"/>
<path d="M0 0 C1 3 1 3 -0.546875 6.1015625 C-1.27046501 7.28271679 -2.00534404 8.45701222 -2.75 9.625 C-3.1109375 10.223125 -3.471875 10.82125 -3.84375 11.4375 C-6.61196429 15.87065476 -6.61196429 15.87065476 -10 17 C-8.57394582 13.07297642 -6.70550338 9.75380481 -4.4375 6.25 C-3.81746094 5.28578125 -3.19742188 4.3215625 -2.55859375 3.328125 C-1 1 -1 1 0 0 Z " fill="#FC5D1B" transform="translate(532,394)"/>
<path d="M0 0 C0.66 0 1.32 0 2 0 C1.31167159 3.84161667 -0.43580248 6.82867898 -2.375 10.1875 C-2.98085938 11.25355469 -3.58671875 12.31960938 -4.2109375 13.41796875 C-6 16 -6 16 -9 17 C-7.5143761 12.99624358 -5.63136615 9.38578153 -3.5 5.6875 C-2.58734375 4.08455078 -2.58734375 4.08455078 -1.65625 2.44921875 C-1.1096875 1.64097656 -0.563125 0.83273437 0 0 Z " fill="#FC5C19" transform="translate(543,375)"/>
<path d="M0 0 C0.66 0 1.32 0 2 0 C3.5056904 5.80766296 4.21824777 10.9981863 4 17 C2 16 2 16 1.3671875 14.1796875 C0.3330683 9.33738332 -0.2106585 4.95047466 0 0 Z " fill="#FC5D1C" transform="translate(341,652)"/>
<path d="M0 0 C0.33 0.99 0.66 1.98 1 3 C-0.58203125 5.91796875 -0.58203125 5.91796875 -2.8125 9.1875 C-3.54082031 10.27417969 -4.26914062 11.36085938 -5.01953125 12.48046875 C-5.67308594 13.31191406 -6.32664062 14.14335937 -7 15 C-7.66 15 -8.32 15 -9 15 C-7.58399311 8.86397012 -3.9336625 4.73301638 0 0 Z " fill="#FB5E1B" transform="translate(394,451)"/>
<path d="M0 0 C0.33 0 0.66 0 1 0 C1.22058508 4.59092706 0.5361591 8.05455252 -1 12.375 C-1.37125 13.43460938 -1.7425 14.49421875 -2.125 15.5859375 C-2.41375 16.38257813 -2.7025 17.17921875 -3 18 C-3.33 18 -3.66 18 -4 18 C-4.59244521 11.33499135 -2.48322845 6.13047025 0 0 Z " fill="#FC5C19" transform="translate(487,201)"/>
<path d="M0 0 C0.33 0 0.66 0 1 0 C1.37851209 5.93002267 0.10575375 10.47239641 -2 16 C-2.66 15.67 -3.32 15.34 -4 15 C-3.43179252 9.54520815 -2.05362055 5.08940744 0 0 Z " fill="#FC5E1D" transform="translate(352,529)"/>
<path d="M0 0 C0.66 0 1.32 0 2 0 C0.41078475 5.36095277 -1.18972938 10.70843973 -3 16 C-3.33 16 -3.66 16 -4 16 C-4.5326514 9.741346 -2.81849506 5.54891215 0 0 Z " fill="#FC5B19" transform="translate(289,476)"/>
<path d="M0 0 C0.99 0.33 1.98 0.66 3 1 C-5.261959 9.6309795 -5.261959 9.6309795 -10 12 C-10 9 -10 9 -8.3203125 7.24609375 C-7.59585938 6.64925781 -6.87140625 6.05242187 -6.125 5.4375 C-5.04605469 4.53837891 -5.04605469 4.53837891 -3.9453125 3.62109375 C-3.30335938 3.08613281 -2.66140625 2.55117188 -2 2 C-1.34 1.34 -0.68 0.68 0 0 Z " fill="#FC5C18" transform="translate(621,346)"/>
<path d="M0 0 C0.66 0 1.32 0 2 0 C3.03046722 1.78614318 4.04913236 3.57910018 5.0625 5.375 C5.63097656 6.37273438 6.19945312 7.37046875 6.78515625 8.3984375 C7.18605469 9.25695312 7.58695312 10.11546875 8 11 C7.67 11.66 7.34 12.32 7 13 C3.70759125 10.20145256 1.96437054 6.79326725 0 3 C0 2.01 0 1.02 0 0 Z " fill="#FA5C1A" transform="translate(297,667)"/>
<path d="M0 0 C0.66 0 1.32 0 2 0 C1.35952602 3.44748958 0.00294981 5.84644185 -1.9375 8.75 C-2.46214844 9.54921875 -2.98679687 10.3484375 -3.52734375 11.171875 C-4.01332031 11.77515625 -4.49929688 12.3784375 -5 13 C-5.66 13 -6.32 13 -7 13 C-5.39516194 8.33138019 -3.02509806 3.90741833 0 0 Z " fill="#FB5B18" transform="translate(519,413)"/>
<path d="M0 0 C2.67733998 2.67031284 3.00280229 4.03721441 3.29296875 7.890625 C3.27314945 9.34404009 3.23754845 10.79731167 3.1875 12.25 C3.16719727 13.36761719 3.16719727 13.36761719 3.14648438 14.5078125 C3.11127204 16.33885416 3.05746851 18.16952169 3 20 C2.67 20 2.34 20 2 20 C1.66131223 17.79248152 1.32928311 15.58394089 1 13.375 C0.814375 12.14523437 0.62875 10.91546875 0.4375 9.6484375 C0.04597484 6.3833973 -0.08080924 3.28287549 0 0 Z " fill="#FD5815" transform="translate(565,256)"/>
<path d="M0 0 C0.99 0.33 1.98 0.66 3 1 C2.09507812 1.79664063 2.09507812 1.79664063 1.171875 2.609375 C0.37265625 3.31578125 -0.4265625 4.0221875 -1.25 4.75 C-2.03890625 5.44609375 -2.8278125 6.1421875 -3.640625 6.859375 C-5.83011856 8.84586916 -7.92901285 10.89101308 -10 13 C-8.90875514 7.40737011 -6.07800443 4.83689736 -1.97265625 1.22265625 C-1.32167969 0.81917969 -0.67070313 0.41570312 0 0 Z " fill="#FC5B18" transform="translate(640,328)"/>
<path d="M0 0 C0.33 0 0.66 0 1 0 C1.19243024 4.81075606 0.86687649 8.54023951 -1 13 C-1.66 13.66 -2.32 14.32 -3 15 C-2.22095672 4.44191344 -2.22095672 4.44191344 0 0 Z " fill="#FC5E1C" transform="translate(565,316)"/>
<path d="M0 0 C0.33 0.99 0.66 1.98 1 3 C-0.21484375 5.04296875 -0.21484375 5.04296875 -1.9375 7.1875 C-2.50339844 7.90292969 -3.06929688 8.61835937 -3.65234375 9.35546875 C-4.09707031 9.89816406 -4.54179687 10.44085937 -5 11 C-6.32 10.67 -7.64 10.34 -9 10 C-7.38405168 7.95880212 -5.7143618 5.95927063 -4 4 C-3.34 4 -2.68 4 -2 4 C-1.34 2.68 -0.68 1.36 0 0 Z " fill="#FC5D1A" transform="translate(467,628)"/>
<path d="M0 0 C3.40756081 2.27170721 3.8695411 3.17383143 5 7 C5.125 10.3125 5.125 10.3125 5 13 C2.03472242 10.5546615 1.44417786 8.55397653 0.8125 4.8125 C0.65394531 3.91144531 0.49539063 3.01039063 0.33203125 2.08203125 C0.22246094 1.39496094 0.11289062 0.70789063 0 0 Z " fill="#FD5A19" transform="translate(347,677)"/>
<path d="M0 0 C0.33 0.99 0.66 1.98 1 3 C0.67 3.66 0.34 4.32 0 5 C-0.66 5 -1.32 5 -2 5 C-2.2475 5.61875 -2.495 6.2375 -2.75 6.875 C-4.22047178 9.37480203 -5.41403076 9.83316022 -8 11 C-7.04454634 9.53977837 -6.08553322 8.08188532 -5.125 6.625 C-4.59132813 5.81289063 -4.05765625 5.00078125 -3.5078125 4.1640625 C-2 2 -2 2 0 0 Z " fill="#FB5C18" transform="translate(433,667)"/>
<path d="M0 0 C1.65 0.99 3.3 1.98 5 3 C4.67 5.97 4.34 8.94 4 12 C0 4 0 4 0 0 Z " fill="#F35D1E" transform="translate(485,144)"/>
<path d="M0 0 C2.55934601 1.279673 2.6989233 2.24201036 3.6875 4.875 C3.95949219 5.57367187 4.23148437 6.27234375 4.51171875 6.9921875 C5 9 5 9 4 12 C0.46209597 8.30827405 0.40884117 4.90609405 0 0 Z " fill="#FB5918" transform="translate(287,642)"/>
<path d="M0 0 C0.33 0 0.66 0 1 0 C0.85831863 1.43791516 0.71148957 2.8753237 0.5625 4.3125 C0.48128906 5.11300781 0.40007813 5.91351563 0.31640625 6.73828125 C0 9 0 9 -1 12 C-1.66 12 -2.32 12 -3 12 C-2.14285714 3.42857143 -2.14285714 3.42857143 0 0 Z " fill="#FC5F1C" transform="translate(561,332)"/>
<path d="M0 0 C1.15224028 0.92961422 2.29659176 1.8690125 3.4375 2.8125 C4.07558594 3.33457031 4.71367187 3.85664062 5.37109375 4.39453125 C7 6 7 6 8 9 C4.86493389 8.66410006 3.974751 7.97334828 1.75 5.625 C0 3 0 3 0 0 Z " fill="#FA5A19" transform="translate(337,724)"/>
<path d="M0 0 C0 3.44360632 -0.79591532 4.74795392 -2.5 7.6875 C-2.9640625 8.49574219 -3.428125 9.30398438 -3.90625 10.13671875 C-4.2671875 10.75160156 -4.628125 11.36648438 -5 12 C-5.80576116 9.67509679 -6.17106563 8.45649006 -5.29296875 6.11328125 C-2.22222222 1.11111111 -2.22222222 1.11111111 0 0 Z " fill="#FC5B18" transform="translate(313,429)"/>
<path d="M0 0 C3.32901247 2.21934164 3.75023244 3.34683329 5 7 C1.31245243 6.50168276 -0.60490662 5.89932357 -3 3 C-2.01 2.67 -1.02 2.34 0 2 C0 1.34 0 0.68 0 0 Z " fill="#F66827" transform="translate(443,812)"/>
<path d="M0 0 C0 3.58912412 -0.66436554 4.10857029 -3 6.6875 C-3.556875 7.31011719 -4.11375 7.93273437 -4.6875 8.57421875 C-5.120625 9.04472656 -5.55375 9.51523437 -6 10 C-6.33 9.01 -6.66 8.02 -7 7 C-4.89921489 3.92385037 -3.11378405 2.07585603 0 0 Z " fill="#FC5D1A" transform="translate(345,383)"/>
<path d="M0 0 C0.33 0.99 0.66 1.98 1 3 C-0.40445835 5.2636564 -2.1967913 7.0208685 -4 9 C-4.66 8.67 -5.32 8.34 -6 8 C-4.55746343 4.63408134 -2.66735273 2.48952921 0 0 Z " fill="#FB5C1A" transform="translate(455,642)"/>
<path d="M0 0 C0.6875 1.625 0.6875 1.625 1 4 C-0.4375 7.25 -0.4375 7.25 -2 10 C-2.66 10 -3.32 10 -4 10 C-3.43454163 6.04179141 -2.19097652 3.3340947 0 0 Z " fill="#FC5D1B" transform="translate(373,484)"/>
<path d="M0 0 C4.455 2.97 4.455 2.97 9 6 C8.01 6.33 7.02 6.66 6 7 C2.8125 4.6875 2.8125 4.6875 0 2 C0 1.34 0 0.68 0 0 Z " fill="#FB5C1A" transform="translate(395,780)"/>
<path d="M0 0 C0.62109375 1.796875 0.62109375 1.796875 1 4 C-0.9375 7.25 -0.9375 7.25 -3 10 C-3.33 9.34 -3.66 8.68 -4 8 C-3.22265625 6.0546875 -3.22265625 6.0546875 -2.0625 3.875 C-1.49208984 2.78832031 -1.49208984 2.78832031 -0.91015625 1.6796875 C-0.60980469 1.12539063 -0.30945313 0.57109375 0 0 Z " fill="#FB5816" transform="translate(363,504)"/>
<path d="M0 0 C0.33 0 0.66 0 1 0 C1.3636198 4.24223102 0.5393228 6.58168085 -2 10 C-2.66 10 -3.32 10 -4 10 C-2.8905928 6.51329166 -1.73662334 3.22515763 0 0 Z " fill="#FD5A19" transform="translate(383,466)"/>
<path d="M0 0 C0.33 0.99 0.66 1.98 1 3 C-2.26760563 8.63380282 -2.26760563 8.63380282 -5 10 C-4.38545304 6.00544473 -2.29353263 3.25533664 0 0 Z " fill="#FC5D1A" transform="translate(407,432)"/>
<path d="M0 0 C0.33 0.99 0.66 1.98 1 3 C-0.32 4.32 -1.64 5.64 -3 7 C-3.99 6.67 -4.98 6.34 -6 6 C-4.02 4.02 -2.04 2.04 0 0 Z " fill="#FC5C1A" transform="translate(580,515)"/>
<path d="M0 0 C0.99 0.33 1.98 0.66 3 1 C3.33 3.64 3.66 6.28 4 9 C1.47740939 7.02579865 1.0070192 6.03254358 0.3125 2.8125 C0.209375 1.884375 0.10625 0.95625 0 0 Z " fill="#FB5C1A" transform="translate(555,226)"/>
<path d="M0 0 C2.88437779 1.29299694 4.87219421 2.65941363 7 5 C6.01 5.495 6.01 5.495 5 6 C3.2925002 4.71937515 1.62626404 3.38232443 0 2 C0 1.34 0 0.68 0 0 Z " fill="#F95C1B" transform="translate(413,794)"/>
<path d="M0 0 C0.33 0.99 0.66 1.98 1 3 C-0.65 4.32 -2.3 5.64 -4 7 C-4.66 6.67 -5.32 6.34 -6 6 C-4 4 -2 2 0 0 Z " fill="#FC5B18" transform="translate(596,500)"/>
<path d="M0 0 C0.66 0 1.32 0 2 0 C0.125 4.75 0.125 4.75 -1 7 C-1.99 6.67 -2.98 6.34 -4 6 C-2.7260411 3.96166576 -1.38938077 1.96147874 0 0 Z " fill="#FB5C19" transform="translate(399,443)"/>
<path d="" fill="#EF6C33" transform="translate(0,0)"/>
<path d="" fill="#F36F35" transform="translate(0,0)"/>
<path d="M0 0 C2 1 2 1 2 1 Z " fill="#F76C2F" transform="translate(515,678)"/>
<path d="" fill="#EC6D33" transform="translate(0,0)"/>
<path d="" fill="#ED6E34" transform="translate(0,0)"/>
<path d="" fill="#ED6F35" transform="translate(0,0)"/>
<path d="" fill="#F47437" transform="translate(0,0)"/>
<path d="" fill="#EE6F35" transform="translate(0,0)"/>
<path d="" fill="#F27033" transform="translate(0,0)"/>
<path d="" fill="#574226" transform="translate(0,0)"/>
<path d="" fill="#D27136" transform="translate(0,0)"/>
<path d="" fill="#EC6D34" transform="translate(0,0)"/>
<path d="" fill="#EE6B30" transform="translate(0,0)"/>
<path d="" fill="#ED6D34" transform="translate(0,0)"/>
<path d="" fill="#F17035" transform="translate(0,0)"/>
<path d="" fill="#F26D31" transform="translate(0,0)"/>
<path d="" fill="#F06C32" transform="translate(0,0)"/>
<path d="" fill="#F06D2F" transform="translate(0,0)"/>
<path d="" fill="#F06E33" transform="translate(0,0)"/>
<path d="" fill="#F96F35" transform="translate(0,0)"/>
<path d="" fill="#F46D31" transform="translate(0,0)"/>
<path d="" fill="#F46C31" transform="translate(0,0)"/>
<path d="" fill="#F56D33" transform="translate(0,0)"/>
<path d="" fill="#EC6D31" transform="translate(0,0)"/>
<path d="" fill="#F16D30" transform="translate(0,0)"/>
<path d="" fill="#F96D30" transform="translate(0,0)"/>
<path d="" fill="#F96F32" transform="translate(0,0)"/>
<path d="" fill="#F06D30" transform="translate(0,0)"/>
<path d="" fill="#F66D2F" transform="translate(0,0)"/>
<path d="" fill="#F86D2F" transform="translate(0,0)"/>
<path d="" fill="#F76F32" transform="translate(0,0)"/>
<path d="" fill="#ED6C34" transform="translate(0,0)"/>
<path d="" fill="#F86C2E" transform="translate(0,0)"/>
<path d="" fill="#F96C2E" transform="translate(0,0)"/>
<path d="" fill="#F67035" transform="translate(0,0)"/>
<path d="" fill="#F76B30" transform="translate(0,0)"/>
<path d="" fill="#F96D2E" transform="translate(0,0)"/>
<path d="" fill="#F86C2E" transform="translate(0,0)"/>
<path d="" fill="#F76F32" transform="translate(0,0)"/>
<path d="" fill="#EE6E35" transform="translate(0,0)"/>
<path d="" fill="#EC6E34" transform="translate(0,0)"/>
<path d="" fill="#F96C2F" transform="translate(0,0)"/>
<path d="" fill="#EF6C34" transform="translate(0,0)"/>
<path d="" fill="#F76C2F" transform="translate(0,0)"/>
<path d="" fill="#F96C2E" transform="translate(0,0)"/>
<path d="" fill="#EF6C35" transform="translate(0,0)"/>
<path d="" fill="#EE6D33" transform="translate(0,0)"/>
<path d="" fill="#ED6C33" transform="translate(0,0)"/>
<path d="" fill="#ED6D34" transform="translate(0,0)"/>
<path d="" fill="#F76F35" transform="translate(0,0)"/>
<path d="" fill="#F27034" transform="translate(0,0)"/>
<path d="" fill="#FA7032" transform="translate(0,0)"/>
<path d="" fill="#F67035" transform="translate(0,0)"/>
<path d="" fill="#EA713A" transform="translate(0,0)"/>
<path d="" fill="#EA6E38" transform="translate(0,0)"/>
<path d="" fill="#EC6E36" transform="translate(0,0)"/>
<path d="" fill="#EB6F38" transform="translate(0,0)"/>
<path d="" fill="#F96C32" transform="translate(0,0)"/>
<path d="" fill="#F46D30" transform="translate(0,0)"/>
<path d="" fill="#EA6C35" transform="translate(0,0)"/>
<path d="" fill="#F46D2F" transform="translate(0,0)"/>
<path d="" fill="#FA7031" transform="translate(0,0)"/>
<path d="" fill="#FA6E30" transform="translate(0,0)"/>
<path d="" fill="#EB7038" transform="translate(0,0)"/>
<path d="" fill="#F67339" transform="translate(0,0)"/>
<path d="" fill="#F86C31" transform="translate(0,0)"/>
<path d="" fill="#F96F32" transform="translate(0,0)"/>
<path d="" fill="#ED7238" transform="translate(0,0)"/>
<path d="" fill="#F17133" transform="translate(0,0)"/>
<path d="" fill="#F76F30" transform="translate(0,0)"/>
<path d="" fill="#FA6D2E" transform="translate(0,0)"/>
<path d="" fill="#F86D30" transform="translate(0,0)"/>
<path d="" fill="#EF7131" transform="translate(0,0)"/>
<path d="" fill="#FA6C2E" transform="translate(0,0)"/>
<path d="" fill="#E96E35" transform="translate(0,0)"/>
<path d="" fill="#ED7137" transform="translate(0,0)"/>
<path d="" fill="#EE6E33" transform="translate(0,0)"/>
<path d="" fill="#FA6C2F" transform="translate(0,0)"/>
<path d="" fill="#FA6C2C" transform="translate(0,0)"/>
<path d="" fill="#F96E30" transform="translate(0,0)"/>
<path d="" fill="#F96D30" transform="translate(0,0)"/>
<path d="" fill="#F96E30" transform="translate(0,0)"/>
<path d="" fill="#E56D31" transform="translate(0,0)"/>
<path d="" fill="#ED6F36" transform="translate(0,0)"/>
<path d="" fill="#EC6F36" transform="translate(0,0)"/>
<path d="" fill="#F66A2F" transform="translate(0,0)"/>
<path d="" fill="#EE7138" transform="translate(0,0)"/>
<path d="" fill="#FA6E2F" transform="translate(0,0)"/>
<path d="" fill="#EC6F35" transform="translate(0,0)"/>
<path d="" fill="#ED7037" transform="translate(0,0)"/>
<path d="" fill="#EE6F35" transform="translate(0,0)"/>
<path d="" fill="#F46A2E" transform="translate(0,0)"/>
<path d="" fill="#F17035" transform="translate(0,0)"/>
<path d="" fill="#FA6D30" transform="translate(0,0)"/>
<path d="" fill="#EC6E35" transform="translate(0,0)"/>
<path d="" fill="#ED6E34" transform="translate(0,0)"/>
<path d="" fill="#EB6E34" transform="translate(0,0)"/>
<path d="" fill="#F76D2F" transform="translate(0,0)"/>
<path d="" fill="#ED7137" transform="translate(0,0)"/>
<path d="" fill="#F46F33" transform="translate(0,0)"/>
<path d="" fill="#F06C31" transform="translate(0,0)"/>
<path d="" fill="#F97236" transform="translate(0,0)"/>
<path d="" fill="#ED7038" transform="translate(0,0)"/>
<path d="" fill="#F86D30" transform="translate(0,0)"/>
<path d="" fill="#F57134" transform="translate(0,0)"/>
<path d="" fill="#F07038" transform="translate(0,0)"/>
<path d="" fill="#F67338" transform="translate(0,0)"/>
<path d="" fill="#F57337" transform="translate(0,0)"/>
<path d="" fill="#EF6E34" transform="translate(0,0)"/>
<path d="" fill="#F16D33" transform="translate(0,0)"/>
<path d="" fill="#F36F35" transform="translate(0,0)"/>
<path d="" fill="#EE7138" transform="translate(0,0)"/>
<path d="" fill="#F07035" transform="translate(0,0)"/>
<path d="" fill="#F07035" transform="translate(0,0)"/>
<path d="" fill="#EF6F34" transform="translate(0,0)"/>
<path d="" fill="#F06F33" transform="translate(0,0)"/>
<path d="" fill="#F07135" transform="translate(0,0)"/>
<path d="" fill="#F07036" transform="translate(0,0)"/>
<path d="" fill="#EE7237" transform="translate(0,0)"/>
<path d="" fill="#EF6E32" transform="translate(0,0)"/>
<path d="" fill="#F27235" transform="translate(0,0)"/>
<path d="" fill="#ED6E31" transform="translate(0,0)"/>
<path d="" fill="#F26F33" transform="translate(0,0)"/>
<path d="" fill="#F06D31" transform="translate(0,0)"/>
<path d="" fill="#EF6E31" transform="translate(0,0)"/>
<path d="" fill="#EC6C32" transform="translate(0,0)"/>
<path d="" fill="#EC6A2E" transform="translate(0,0)"/>
<path d="" fill="#EC6D30" transform="translate(0,0)"/>
<path d="" fill="#E86E33" transform="translate(0,0)"/>
<path d="" fill="#E66F32" transform="translate(0,0)"/>
<path d="" fill="#51422A" transform="translate(0,0)"/>
</svg>
